<!-- icon666.com - MILLIONS vector ICONS FREE --><svg viewBox="0 0 24 24" xmlns="http://www.w3.org/2000/svg"><g id="Layer_1" data-name="Layer 1"><path d="m19 23h-4a1 1 0 0 1 -1-1v-4.5a.5.5 0 0 0 -.5-.5h-3a.5.5 0 0 0 -.5.5v4.5a1 1 0 0 1 -1 1h-4a1.652 1.652 0 0 1 -1.67-1.63v-7.38h-.14a2.2 2.2 0 0 1 -2.084-1.09 1.227 1.227 0 0 1 .255-1.365l8.799-9.735a2.6 2.6 0 0 1 3.678 0l8.8 9.733a1.224 1.224 0 0 1 .253 1.362 2.2 2.2 0 0 1 -2.084 1.093h-.14v7.38a1.652 1.652 0 0 1 -1.667 1.632zm-8.5-7h3a1.5 1.5 0 0 1 1.5 1.5v4.5h4a.652.652 0 0 0 .67-.63v-8.38h1.14c.655 0 1.12-.218 1.169-.5a.4.4 0 0 0 -.078-.287l-8.801-9.729a1.566 1.566 0 0 0 -2.2 0l-8.8 9.726a.4.4 0 0 0 -.08.289c.049.278.513.5 1.169.5h1.141v8.38a.652.652 0 0 0 .67.631h4v-4.5a1.5 1.5 0 0 1 1.5-1.5z" fill="#000000" style="fill: rgb(133, 133, 133);"></path></g></svg>